HIERARCHY
ROOT root     
{
	OFFSET 0.0000 0.0000 0.0000
	CHANNELS 6 Xposition Yposition Zposition Zrotation Yrotation Xrotation
	JOINT pelvis   
	{
		OFFSET 0.0000 0.0000 0.0000
		CHANNELS 3 Zrotation Yrotation Xrotation
		JOINT thorax   
		{
			OFFSET 0.0000 23.0750 -5.0000
			CHANNELS 3 Zrotation Yrotation Xrotation
			JOINT rclavicle
			{
				OFFSET 0.0000 28.0009 0.0000
				CHANNELS 3 Zrotation Yrotation Xrotation
				JOINT rhumerus 
				{
					OFFSET -18.5725 5.5939 0.0000
					CHANNELS 3 Zrotation Yrotation Xrotation
					JOINT rradius  
					{
						OFFSET -24.8459 0.0000 0.0000
						CHANNELS 3 Zrotation Yrotation Xrotation
						JOINT rhand    
						{
							OFFSET -24.5477 0.0000 0.0000
							CHANNELS 3 Zrotation Yrotation Xrotation
							End Site
							{
								OFFSET -8.1826 0.0000 0.0000
							}
						}
					}
				}
			}
			JOINT lclavicle
			{
				OFFSET 0.0000 28.0009 0.0000
				CHANNELS 3 Zrotation Yrotation Xrotation
				JOINT lhumerus 
				{
					OFFSET 18.5725 5.5939 0.0000
					CHANNELS 3 Zrotation Yrotation Xrotation
					JOINT lradius  
					{
						OFFSET 24.8459 0.0000 0.0000
						CHANNELS 3 Zrotation Yrotation Xrotation
						JOINT lhand    
						{
							OFFSET 24.5477 0.0000 0.0000
							CHANNELS 3 Zrotation Yrotation Xrotation
							End Site
							{
								OFFSET 8.1826 0.0000 0.0000
							}
						}
					}
				}
			}
			JOINT head     
			{
				OFFSET 0.0000 35.2030 0.0000
				CHANNELS 3 Zrotation Yrotation Xrotation
				End Site
				{
					OFFSET 0.0000 11.7343 0.0000
				}
			}
		}
		JOINT rfemur   
		{
			OFFSET -8.2817 0.0000 0.0000
			CHANNELS 3 Zrotation Yrotation Xrotation
			JOINT rtibia   
			{
				OFFSET 0.0000 -43.3627 0.0000
				CHANNELS 3 Zrotation Yrotation Xrotation
				JOINT rfoot    
				{
					OFFSET 0.0000 -38.2947 0.0000
					CHANNELS 3 Zrotation Yrotation Xrotation
					JOINT rtoes    
					{
						OFFSET 0.0000 0.0000 16.6054
						CHANNELS 3 Zrotation Yrotation Xrotation
						End Site
						{
							OFFSET 0.0000 0.0000 5.5351
						}
					}
				}
			}
		}
		JOINT lfemur   
		{
			OFFSET 8.2817 0.0000 0.0000
			CHANNELS 3 Zrotation Yrotation Xrotation
			JOINT ltibia   
			{
				OFFSET 0.0000 -43.3627 0.0000
				CHANNELS 3 Zrotation Yrotation Xrotation
				JOINT lfoot    
				{
					OFFSET 0.0000 -38.2947 0.0000
					CHANNELS 3 Zrotation Yrotation Xrotation
					JOINT ltoes    
					{
						OFFSET 0.0000 0.0000 16.6054
						CHANNELS 3 Zrotation Yrotation Xrotation
						End Site
						{
							OFFSET 0.0000 0.0000 5.5351
						}
					}
				}
			}
		}
	}
}
MOTION
Frames: 17
Frame Time: .0333333
91.986 61.556 7.8452 60.3944 -84.1818 -13.0791 0 -0 0 -0.430298 -9.3575 4.65848 27.0474 -8.3424 -4.61295e-05 59.0692 5.13767 -33.1265 -8.7458e-08 16.0089 -6.21947e-07 -18.364 12.2902 -1.9941 -23.3155 9.22234 4.09403e-05 -56.1407 0.331673 -21.9621 0 -20.0502 0 25.5496 -3.36562 -0.763298 3.38518 0.204258 -47.1352 -0.597443 -8.26209 -94.7363 -0 -0 95.2267 0.000144053 -16.6457 -28.8753 8.21539 1.0508e-05 -52.6834 -5.06354 -3.28834 -95.2901 -0 -0 92.3926 -9.92483e-05 21.7578 -28.2197 -10.6874 -3.42675e-05 -34.6348 
91.761 61.445 7.8323 60.1237 -84.1438 -12.6919 0 -0 0 -0.453694 -9.38161 4.55676 27.0558 -8.28276 -1.71821e-05 59.0545 5.40807 -33.0544 -8.80228e-08 16.1049 -6.22179e-07 -18.4488 12.3992 -2.02136 -23.34 9.14752 2.02051e-05 -56.1009 0.106331 -21.9119 1.1266e-07 -20.1759 -6.33237e-07 25.5714 -3.37876 -0.766984 3.42175 0.167836 -47.2494 -0.660153 -8.21586 -94.7348 -0 -0 95.5057 3.5262e-05 -16.8338 -29.1973 8.39584 -1.13331e-06 -52.5929 -4.9959 -3.35447 -95.3242 -0 -0 92.6606 0.00016008 21.9187 -28.5336 -10.8799 -6.15059e-05 -34.5508 
91.52 61.357 7.818 59.8016 -84.1152 -12.2776 0 -0 0 -0.473597 -9.40083 4.45728 27.0644 -8.21433 -7.6415e-07 59.0353 5.69388 -32.9311 -0 16.1976 -0 -18.5205 12.5015 -2.04625 -23.368 9.05497 1.45235e-05 -56.0629 -0.112122 -21.8392 0 -20.3249 0 25.6106 -3.39705 -0.772382 3.46336 0.132987 -47.3542 -0.715887 -8.16912 -94.6792 -0 -0 95.7454 0.000194471 -17.0182 -29.4984 8.57031 -8.75789e-05 -52.5535 -4.92608 -3.41099 -95.305 -0 -0 92.8933 -6.44527e-05 22.0731 -28.8249 -11.0622 -6.25716e-05 -34.5361 
91.268 61.293 7.8035 59.4893 -84.0838 -11.8861 0 -0 0 -0.494999 -9.40957 4.3507 27.0701 -8.15161 3.03349e-05 59.0159 6.00481 -32.7277 -0 16.2948 -0 -18.5998 12.5685 -2.06616 -23.3906 8.93963 2.9585e-05 -56.0308 -0.334006 -21.7469 1.1449e-07 -20.4681 -6.34145e-07 25.6727 -3.4522 -0.786887 3.51221 0.0940185 -47.4442 -0.763235 -8.12795 -94.5817 -0 -0 95.9446 0.000125624 -17.1998 -29.7564 8.73419 -3.46834e-05 -52.6163 -4.85688 -3.46373 -95.2409 -0 -0 93.086 6.19044e-05 22.2193 -29.0715 -11.2263 -3.91594e-05 -34.6408 
91 61.254 7.7856 59.0786 -84.06 -11.3983 0 -0 0 -0.500209 -9.43354 4.21825 27.0845 -8.04127 -6.427e-05 58.9784 6.29718 -32.5542 -0 16.385 -0 -18.6208 12.6841 -2.08771 -23.4407 8.8342 3.30476e-05 -55.9771 -0.547935 -21.6002 1.15631e-07 -20.6499 -6.34711e-07 25.7483 -3.45963 -0.790909 3.55881 0.0785563 -47.514 -0.795963 -8.07971 -94.4403 -0 -0 96.0972 -0.000237874 -17.389 -29.984 8.89544 1.43778e-05 -52.6874 -4.78153 -3.50311 -95.1424 -0 -0 93.2422 2.12608e-05 22.3481 -29.276 -11.3672 -6.67691e-05 -34.8118 
90.722 61.24 7.7674 58.6894 -84.039 -10.9426 0 -0 0 -0.509993 -9.44527 4.06668 27.1011 -7.9406 5.23085e-06 58.9423 6.61227 -32.3096 -9.02876e-08 16.4892 -6.2311e-07 -18.6608 12.7619 -2.10527 -23.4821 8.70633 5.11362e-05 -55.9247 -0.777398 -21.4338 0 -20.8025 0 25.8448 -3.51406 -0.806473 3.61193 0.0566575 -47.566 -0.818754 -8.03974 -94.2661 -0 -0 96.202 -9.61403e-06 -17.582 -30.1524 9.04365 3.40933e-05 -52.868 -4.71026 -3.53997 -95.0096 -0 -0 93.3509 -0.000134583 22.4675 -29.4152 -11.4811 -2.38396e-05 -35.119 
90.432 61.253 7.7491 58.3453 -83.9946 -10.5188 0 -0 0 -0.520488 -9.45698 3.88707 27.124 -7.8253 -4.10626e-06 58.902 6.92889 -32.0495 -9.09925e-08 16.6085 -6.23402e-07 -18.6992 12.8352 -2.12191 -23.5311 8.56274 -7.85126e-05 -55.8601 -1.0137 -21.2383 1.17496e-07 -20.9445 -6.35664e-07 25.9582 -3.57949 -0.825319 3.66522 0.0359849 -47.6044 -0.833157 -8.00911 -94.0603 -0 -0 96.2542 6.73751e-06 -17.7755 -30.2685 9.17946 1.30703e-05 -53.1037 -4.64368 -3.57554 -94.8421 -0 -0 93.406 -3.92836e-05 22.5746 -29.4966 -11.5685 -9.57034e-05 -35.5133 
90.132 61.293 7.7303 58.0218 -83.9686 -10.1277 0 -0 0 -0.535391 -9.46572 3.67706 27.1538 -7.70481 -4.86362e-06 58.8616 7.2571 -31.7701 -0 16.744 -0 -18.7524 12.8992 -2.13873 -23.5804 8.40954 4.30237e-05 -55.7828 -1.27449 -21.018 0 -21.0554 0 26.0812 -3.66396 -0.848906 3.7187 0.0109542 -47.6305 -0.841995 -7.98763 -93.8192 -0 -0 96.2527 0.000115127 -17.9647 -30.3393 9.30115 2.71043e-05 -53.3795 -4.5846 -3.60787 -94.6383 -0 -0 93.4045 0.000116935 22.667 -29.5307 -11.6321 -3.04584e-06 -35.9703 
89.819 61.36 7.7118 57.7753 -83.9226 -9.8046 0 -0 0 -0.557991 -9.4727 3.43659 27.193 -7.58232 -8.45786e-05 58.821 7.6009 -31.4776 -0 16.8922 -0 -18.8301 12.9547 -2.15706 -23.6307 8.25207 -6.31069e-05 -55.6939 -1.57098 -20.7764 0 -21.1253 0 26.2107 -3.76553 -0.876898 3.77048 -0.0235039 -47.6528 -0.850491 -7.9784 -93.5454 -0 -0 96.1957 1.7523e-05 -18.1395 -30.3754 9.4063 4.05035e-05 -53.6641 -4.53643 -3.63894 -94.3961 -0 -0 93.3383 0.00011713 22.7482 -29.5336 -11.6779 -2.26696e-05 -36.4455 
89.494 61.456 7.6942 57.5952 -83.8811 -9.55552 0 -0 0 -0.586298 -9.48181 3.16488 27.2356 -7.44656 -3.2432e-05 58.7838 7.95315 -31.1972 -0 17.0546 -0 -18.932 13.0085 -2.178 -23.6882 8.07578 1.253e-05 -55.5854 -1.88134 -20.5172 0 -21.1694 0 26.3409 -3.86366 -0.904396 3.81523 -0.070548 -47.6745 -0.862466 -7.9843 -93.2316 -0 -0 96.0833 1.5646e-05 -18.2892 -30.3919 9.49276 -3.59038e-05 -53.9264 -4.49897 -3.67095 -94.104 -0 -0 93.2012 -0.000147272 22.8191 -29.5292 -11.7153 7.07145e-06 -36.8811 
89.154 61.58 7.6775 57.5289 -83.8184 -9.4204 0 -0 0 -0.627718 -9.4924 2.86918 27.2845 -7.31641 1.95443e-05 58.7503 8.33982 -30.9051 -0 17.2167 -0 -19.0743 13.0525 -2.20224 -23.7406 7.90722 4.41391e-05 -55.4639 -2.25207 -20.2454 0 -21.1568 0 26.4672 -3.97104 -0.934208 3.8549 -0.135221 -47.7068 -0.885813 -8.00693 -92.8738 -0 -0 95.9183 4.79558e-05 -18.4028 -30.4013 9.55695 8.70231e-05 -54.1524 -4.47621 -3.70395 -93.7552 -0 -0 92.9928 -0.000179012 22.88 -29.5373 -11.7523 -1.06914e-06 -37.2451 
88.799 61.734 7.6619 57.5237 -83.7531 -9.35964 0 -0 0 -0.675287 -9.50751 2.55136 27.3335 -7.17829 -8.1437e-06 58.7228 8.75359 -30.6295 -0 17.3778 -0 -19.2478 13.0947 -2.22982 -23.7991 7.72693 -4.4829e-05 -55.3249 -2.65188 -19.9618 1.18568e-07 -21.1135 -6.36213e-07 26.584 -4.06004 -0.959516 3.88417 -0.219303 -47.7493 -0.922426 -8.04495 -92.4617 -0 -0 95.7006 7.74262e-05 -18.4672 -30.419 9.5973 -2.62014e-05 -54.3268 -4.46374 -3.73821 -93.3432 -0 -0 92.7113 9.28104e-05 22.9332 -29.577 -11.7961 4.93546e-06 -37.4963 
88.428 61.916 7.6468 57.5889 -83.6765 -9.38606 0 -0 0 -0.728699 -9.52765 2.21854 27.3787 -7.03635 5.91005e-05 58.6989 9.20626 -30.3558 -0 17.524 -0 -19.4491 13.1318 -2.26 -23.8575 7.54266 -4.04507e-05 -55.1699 -3.09323 -19.6681 0 -21.0367 0 26.6895 -4.12543 -0.979002 3.90235 -0.323548 -47.8047 -0.975171 -8.09695 -91.9933 -0 -0 95.436 4.29627e-05 -18.4781 -30.4473 9.61109 -1.59649e-05 -54.4579 -4.45893 -3.7734 -92.8564 -0 -0 92.356 7.0314e-06 22.981 -29.6612 -11.8523 7.49841e-05 -37.626 
88.038 62.128 7.6315 57.6606 -83.6029 -9.44761 0 -0 0 -0.784701 -9.55315 1.87645 27.4165 -6.88791 2.41019e-05 58.6796 9.70244 -30.0845 -9.71979e-08 17.6503 -6.2604e-07 -19.6705 13.1627 -2.29173 -23.916 7.35132 7.62332e-06 -55.0006 -3.57205 -19.3649 0 -20.9375 0 26.78 -4.15611 -0.989808 3.90901 -0.446303 -47.8729 -1.04542 -8.15972 -91.4597 -0 -0 95.1259 -1.82724e-05 -18.4306 -30.4857 9.59615 3.38733e-06 -54.5678 -4.45734 -3.80895 -92.2912 -0 -0 91.9312 -8.2002e-06 23.0243 -29.789 -11.9215 -9.08482e-06 -37.6478 
87.63 62.371 7.6146 57.7222 -83.5217 -9.52365 0 -0 0 -0.835895 -9.58251 1.52963 27.4401 -6.73596 1.34334e-05 58.663 10.253 -29.8043 -0 17.7444 -0 -19.8978 13.1901 -2.32353 -23.9722 7.16262 -4.44562e-05 -54.8188 -4.1024 -19.0463 0 -20.8141 0 26.8553 -4.14968 -0.991093 3.90321 -0.583927 -47.9483 -1.12893 -8.22562 -90.8561 -0 -0 94.7714 -6.61507e-05 -18.3288 -30.5263 9.55168 2.55493e-05 -54.6883 -4.45023 -3.84204 -91.6471 -0 -0 91.4409 0.000122971 23.0621 -29.9498 -11.9999 3.32854e-05 -37.5984 
87.202 62.644 7.5948 57.7272 -83.4438 -9.57597 0 -0 0 -0.879192 -9.61432 1.18149 27.4439 -6.57235 4.16345e-05 58.6469 10.8524 -29.5114 -0 17.8105 -0 -20.1136 13.214 -2.35362 -24.0216 6.96523 1.28074e-05 -54.6262 -4.66745 -18.7118 0 -20.6871 0 26.9138 -4.09855 -0.981076 3.88611 -0.731223 -48.0254 -1.22316 -8.28966 -90.1787 -0 -0 94.369 3.18605e-05 -18.1818 -30.5511 9.47774 4.26957e-05 -54.8626 -4.43121 -3.87182 -90.9219 -0 -0 90.8874 8.92482e-05 23.0969 -30.1214 -12.0802 -2.34936e-05 -37.5326 
86.754 62.95 7.57 57.6003 -83.3737 -9.52941 0 -0 0 -0.904301 -9.64396 0.828092 27.421 -6.38383 -2.94145e-05 58.6304 11.4828 -29.2104 -9.84716e-08 17.8627 -6.2659e-07 -20.2982 13.2398 -2.38038 -24.0642 6.74268 9.29572e-06 -54.4232 -5.24156 -18.3608 1.15215e-07 -20.5834 -6.34509e-07 26.9553 -3.99512 -0.95791 3.85625 -0.882663 -48.0913 -1.31925 -8.34092 -89.4247 -0 -0 93.9135 -9.14216e-05 -18.0045 -30.537 9.37708 -4.9515e-05 -55.1226 -4.38958 -3.89424 -90.1215 -0 -0 90.273 0.000211523 23.1259 -30.2744 -12.151 -5.64065e-05 -37.5124 
